<?xml version="1.0" standalone="no"?>
<!DOCTYPE svg PUBLIC "-//W3C//DTD SVG 20010904//EN"
 "http://www.w3.org/TR/2001/REC-SVG-20010904/DTD/svg10.dtd">
<svg version="1.0" xmlns="http://www.w3.org/2000/svg"
 width="317.000000pt" height="242.000000pt" viewBox="0 0 317.000000 242.000000"
 preserveAspectRatio="xMidYMid meet">

<g transform="translate(0.000000,242.000000) scale(0.100000,-0.100000)"
fill="#000000" stroke="none">
<path d="M1427 2363 c-2 -5 -8 -26 -12 -48 -18 -99 -60 -121 -130 -65 -21 17
-41 30 -46 30 -22 0 -17 -24 13 -59 109 -128 155 -261 174 -503 5 -74 7 -78
30 -78 l24 0 0 365 0 365 -24 0 c-14 0 -27 -3 -29 -7z"/>
<path d="M1739 2337 c-3 -4 -3 -22 -1 -42 l4 -35 92 0 c51 0 119 -7 151 -16
118 -30 312 -155 394 -252 81 -98 141 -236 183 -422 21 -97 23 -127 23 -390 0
-294 -7 -362 -52 -505 -27 -86 -85 -218 -121 -273 -77 -117 -219 -211 -404
-267 -49 -14 -88 -30 -88 -35 0 -25 265 0 424 40 355 90 618 316 736 632 82
220 92 547 24 798 -25 97 -89 236 -146 317 -52 76 -164 187 -241 241 -216 149
-398 199 -752 209 -121 3 -222 3 -226 0z"/>
<path d="M178 2048 c-265 -372 -199 -835 153 -1067 35 -23 327 -172 648 -332
321 -159 610 -308 641 -330 65 -46 109 -96 142 -163 12 -25 25 -46 28 -46 14
0 40 172 40 260 -1 281 -128 483 -408 649 -66 39 -278 149 -473 245 -195 95
-395 201 -446 235 -122 82 -231 191 -272 272 -28 55 -31 72 -31 148 0 47 7
108 15 135 8 27 13 51 11 53 -2 2 -24 -24 -48 -59z"/>
</g>
</svg>
